<svg xmlns="http://www.w3.org/2000/svg" viewBox="0 0 14991.5 4431"><defs><style>.cls-1{fill:#fff;}</style></defs><title>Asset2</title><g id="Layer_2" data-name="Layer 2"><g id="Layer_1-2" data-name="Layer 1"><path class="cls-1" d="M8972,1978.35q-41-56.55-115.79-54.78H8738.62v463.15h117.57q82.83,0,120.24-56.56,16.47-20.93,20.93-53,4-31.61,4-118.46,0-84.61-4-121.13Q8992,2001.07,8972,1978.35Z"/><path class="cls-1" d="M7565.61,2099.48q-41.86,0-68.58,26.28-26.28,27.62-28.95,81.5h195.06q-1.78-53.88-28.95-81.5Q7607.47,2099.48,7565.61,2099.48Z"/><path class="cls-1" d="M14991.5,0H0V4431H14991.5ZM5573,2387.56H5156.28v-129h153.78V2104.8H5156.28V1970.86h153.78V1817.08H5156.28V1707.95h719.29v104.17H5721.8V1965.9h153.78v138.9H5573Zm94.25-198.43h138.9V2328h-138.9Zm223.23,510.95H5672.19V2481.81h218.27Zm0-441.5h138.9v138.9h-138.9Zm391.89,441.5H5989.67V2541.34h292.68Zm631.73-776.51H6597.89v185.26h269.87v87.29H6597.89v190.61h316.19v93.08H6499.47V1830.49h414.61Zm265,556.23h-76.6l-169.67-462.26h98.42l108.66,323.76h1.78l108.22-323.76h98.86Zm577.16-195.95H7468.08q0,55.67,32.07,84.61,29.83,29.39,78.38,29.39,56.55,0,101.09-45l67.25,57.45q-70.81,75.72-166.56,74.82a241,241,0,0,1-71.25-10.69,173.25,173.25,0,0,1-33.85-15.59,163.41,163.41,0,0,1-32.51-20.93q-29.39-25.82-47.65-72.15-20-44.53-20-115.79,0-68.58,17.37-114,17.37-46.31,44.53-73,27.61-27.16,61.9-39.19,33.84-12,66.8-12,79.26.9,134,52.11,55.66,52.11,56.56,143.4Zm342-155.87q-29.39-23.15-61-23.15-35.63,0-61,23.15-28.5,22.72-29.39,73.48V2479.8h-93.08V2017.54h93.08v49h1.78q45.86-54.78,120.24-54.78,55.66.9,97.08,35.63Zm277.34,451.58q-19.15,52.1-53,72.15-34.3,19.14-77.49,19.15h-30.73v-87.73h27.17a62.47,62.47,0,0,0,33.84-9.8q15.58-10.25,21.82-30.28l25.38-77.49-165.67-444h98.42l109.55,323.76h1.78l109.11-323.76h98.87Zm716.64-278.34a163.4,163.4,0,0,1-10.69,37.41,346.06,346.06,0,0,1-18.26,33.4q-28.5,45.87-79.27,75.71-50.33,32.07-123.36,32.07H8640.2V1830.49h227.12q131.82.9,197.73,109.56,23.6,36.52,29.84,76.6,4.9,40.08,4.9,138.5Q9099.79,2259.8,9092.22,2301.22ZM9542,2479.8h-93.08v-41h-1.78q-12.92,23.61-40.08,34.73-26.72,11.58-73.93,11.58-77.49-.9-119.35-41-44.09-39.18-44.09-100.2,0-58.34,38.3-96.64,38.3-39.18,112.22-40.08h128.7v-48.54q.89-61-94.86-59.23-34.74,0-54.78,7.13a66.88,66.88,0,0,0-33,28.5l-73-55.67q53-69.47,156.32-67.69,87.28-.89,139.39,33,52.11,34.74,53,119.35Zm286.35-391.45h-67.69v269.43q-.9,35.18,33,34.29h34.74v87.73h-48.54q-49,0-80.16-30.28-32.07-28.94-32.07-83.72V2088.35h-46.32v-70.81h46.32V1876.81h93.08v140.73h67.69Zm330,391.45v-41h-1.78q-12.92,23.61-40.08,34.73-26.72,11.58-73.93,11.58-77.49-.9-119.35-41-44.09-39.18-44.09-100.2,0-58.34,38.3-96.64,38.3-39.18,112.22-40.08h128.7v-48.54q.89-61-94.86-59.23-34.74,0-54.78,7.13a66.88,66.88,0,0,0-33,28.5l-73-55.67q53-69.47,156.32-67.69,87.28-.89,139.39,33,52.11,34.74,53,119.35V2479.8Z"/><path class="cls-1" d="M9257.44,2339.52q0,23.61,20.93,40.08,20,18.26,66.36,18.26,58.34.9,82.39-13.81,21.81-14.69,21.82-66.8v-33.4H9337.6Q9256.54,2285.63,9257.44,2339.52Z"/><path class="cls-1" d="M9966.87,2339.52q0,23.61,20.93,40.08,20,18.26,66.36,18.26,58.34.9,82.39-13.81,21.81-14.69,21.82-66.8v-33.4H10047Q9966,2285.63,9966.87,2339.52Z"/></g></g></svg>