<svg xmlns="http://www.w3.org/2000/svg" viewBox="0 0 2826 1492"><defs><style>.cls-1{fill:#fff;}</style></defs><title>Asset 1</title><g id="Layer_2" data-name="Layer 2"><g id="Layer_1-2" data-name="Layer 1"><path class="cls-1" d="M1829.83,666.23q-13.8-19-39-18.44h-39.58V803.73h39.58q27.89,0,40.48-19,5.55-7,7-17.84,1.35-10.64,1.35-39.88,0-28.49-1.35-40.78Q1836.58,673.88,1829.83,666.23Z"/><path class="cls-1" d="M1356.33,707q-14.09,0-23.09,8.85-8.85,9.3-9.75,27.44h65.67q-.6-18.14-9.75-27.44Q1370.43,707,1356.33,707Z"/><path class="cls-1" d="M0,0V1492H2826V0ZM685.44,804H545.15V760.58h51.78V708.81H545.15V663.71h51.78V611.94H545.15V575.19H787.33v35.07H735.55V662h51.78v46.76H685.44Zm31.73-66.81h46.76V784H717.18Zm75.16,172H718.85V835.74h73.49Zm0-148.65H839.1v46.76H792.34ZM924.28,909.23H825.74V855.78h98.54ZM1137,647.79H1030.51v62.37h90.86v29.39h-90.86v64.17H1137v31.34H997.38V616.45H1137Zm89.21,187.27H1200.4l-57.13-155.64h33.14l36.58,109h.6l36.43-109h33.29Zm194.32-66h-97q0,18.74,10.8,28.49,10,9.9,26.39,9.9,19,0,34-15.14l22.64,19.34q-23.84,25.49-56.08,25.19a81.14,81.14,0,0,1-24-3.6,58.33,58.33,0,0,1-11.4-5.25,55,55,0,0,1-10.95-7q-9.9-8.69-16-24.29-6.75-15-6.75-39,0-23.09,5.85-38.38,5.85-15.59,15-24.59a55.87,55.87,0,0,1,20.84-13.19,66.85,66.85,0,0,1,22.49-4q26.69.3,45.13,17.54,18.74,17.54,19,48.28Zm115.15-52.48q-9.9-7.79-20.54-7.8a29.42,29.42,0,0,0-20.54,7.8q-9.6,7.65-9.9,24.74v93.71h-31.34V679.43h31.34v16.49h.6q15.44-18.44,40.48-18.44a50.63,50.63,0,0,1,32.69,12Zm93.38,152q-6.45,17.54-17.84,24.29a52.62,52.62,0,0,1-26.09,6.45h-10.35V869.85h9.15a21,21,0,0,0,11.39-3.3,18.17,18.17,0,0,0,7.35-10.2l8.55-26.09-55.78-149.49h33.14l36.88,109h.6l36.73-109h33.29Zm241.28-93.71a55,55,0,0,1-3.6,12.59,116.5,116.5,0,0,1-6.15,11.25,76.06,76.06,0,0,1-26.69,25.49q-16.95,10.8-41.53,10.8h-74.22V616.45h76.47q44.38.3,66.57,36.89a65.82,65.82,0,0,1,10,25.79q1.65,13.49,1.65,46.63Q1872.87,761,1870.32,774.94Zm151.44,60.13h-31.34V821.27h-.6A26,26,0,0,1,1976.32,833q-9,3.9-24.89,3.9-26.09-.3-40.18-13.79-14.84-13.19-14.84-33.74,0-19.64,12.9-32.54,12.89-13.19,37.78-13.49h43.33V727q.3-20.54-31.94-19.94-11.7,0-18.44,2.4a22.52,22.52,0,0,0-11.1,9.6l-24.59-18.74q17.84-23.39,52.63-22.79,29.38-.3,46.93,11.1,17.54,11.7,17.84,40.18Zm96.41-131.8h-22.79V794q-.3,11.85,11.1,11.54h11.7v29.54h-16.34q-16.5,0-27-10.2-10.8-9.74-10.8-28.19V703.27h-15.59V679.43H2064V632h31.34v47.38h22.79Zm142.44,131.8h-31.34V821.27h-.6A26,26,0,0,1,2215.18,833q-9,3.9-24.89,3.9-26.09-.3-40.18-13.79-14.84-13.19-14.84-33.74,0-19.64,12.9-32.54,12.89-13.19,37.78-13.49h43.33V727q.3-20.54-31.94-19.94-11.7,0-18.44,2.4a22.52,22.52,0,0,0-11.1,9.6l-24.59-18.74q17.84-23.39,52.63-22.79,29.38-.3,46.93,11.1,17.54,11.7,17.84,40.18Z"/><path class="cls-1" d="M1925.94,787.83q0,7.95,7,13.49,6.75,6.15,22.34,6.15,19.64.3,27.74-4.65,7.34-4.95,7.35-22.49V769.09h-37.48Q1925.64,769.69,1925.94,787.83Z"/><path class="cls-1" d="M2164.8,787.83q0,7.95,7,13.49,6.75,6.15,22.34,6.15,19.64.3,27.74-4.65,7.34-4.95,7.35-22.49V769.09h-37.48Q2164.49,769.69,2164.8,787.83Z"/></g></g></svg>