<svg xmlns="http://www.w3.org/2000/svg" viewBox="0 0 8352 4400"><defs><style>.cls-1{fill:#fff;}</style></defs><title>Asset3</title><g id="Layer_2" data-name="Layer 2"><g id="Layer_1-2" data-name="Layer 1"><path class="cls-1" d="M5905.71,1924.3q-55.5-76.59-156.83-74.19H5589.65v627.3h159.23q112.19,0,162.86-76.61,22.31-28.34,28.35-71.78,5.43-42.82,5.43-160.44,0-114.6-5.43-164.07Q5932.85,1955.07,5905.71,1924.3Z"/><path class="cls-1" d="M4000.92,2088.36q-56.7,0-92.89,35.59-35.59,37.41-39.21,110.38H4133q-2.42-73-39.21-110.38Q4057.62,2088.36,4000.92,2088.36Z"/><path class="cls-1" d="M8352,4400V0H0V4400ZM7384.09,2088.36q-47,0-74.19,9.65-28.36,11.46-44.64,38.6l-98.92-75.4q71.77-94.1,211.71-91.68,118.21-1.2,188.79,44.64,70.57,47,71.78,161.65v427.65H7512.56V2548h-2.41q-17.5,32-54.28,47-36.19,15.68-100.13,15.68-105-1.21-161.65-55.49-59.72-53.07-59.72-135.71,0-79,51.88-130.89,51.87-53.06,152-54.28h174.32v-65.74Q7513.76,2085.95,7384.09,2088.36Zm-599-111h62.73v-190.6h126.06v190.6h91.68v95.91h-91.68V2438.2q-1.21,47.65,44.64,46.44h47v118.83h-65.75q-66.36,0-108.57-41-43.43-39.2-43.43-113.4V2073.28h-62.73Zm-361.9,111q-47,0-74.19,9.65-28.36,11.46-44.64,38.6l-98.92-75.4q71.77-94.1,211.71-91.68,118.21-1.2,188.79,44.64,70.57,47,71.78,161.65v427.65H6551.71V2548h-2.41q-17.5,32-54.28,47-36.19,15.68-100.13,15.68-105-1.21-161.65-55.49-59.72-53.07-59.72-135.71,0-79,51.88-130.89,51.87-53.06,152-54.28h174.32v-65.74Q6552.91,2085.95,6423.23,2088.36ZM5456.35,1724H5764q178.53,1.22,267.81,148.38,32,49.46,40.41,103.74,6.64,54.28,6.64,187.59,0,141.75-10.25,197.84-4.83,28.36-14.48,50.67a468.68,468.68,0,0,1-24.73,45.24Q5990.76,2519.63,5922,2560q-68.17,43.43-167.08,43.43H5456.35Zm-521.26,258.77,148.38,438.51h2.42l147.77-438.51h133.91l-269.62,755.78q-25.94,70.57-71.78,97.71-46.45,25.92-104.95,25.94H4879.6V2743.41h36.79a84.6,84.6,0,0,0,45.84-13.27q21.11-13.88,29.56-41l34.38-104.95-224.38-601.36Zm-543.92-5.44h126.06v66.35h2.41q62.12-74.19,162.86-74.19,75.39,1.22,131.49,48.25L4722.31,2127q-39.81-31.36-82.64-31.36-48.26,0-82.64,31.36-38.6,30.77-39.81,99.52v377H4391.17Zm-624.89,160.44q23.52-62.72,60.32-98.92,37.39-36.78,83.84-53.08,45.83-16.29,90.47-16.29,107.35,1.22,181.56,70.57,75.39,70.57,76.6,194.22v103.75H3868.82q0,75.4,43.43,114.6,40.41,39.81,106.16,39.81,76.59,0,136.92-60.92l91.08,77.81q-95.9,102.55-225.59,101.33a326.39,326.39,0,0,1-96.51-14.47,234.66,234.66,0,0,1-45.84-21.11,221.31,221.31,0,0,1-44-28.35q-39.81-35-64.54-97.71-27.14-60.31-27.14-156.82Q3742.76,2199.35,3766.29,2137.82Zm-489.17-160.44,147.17,438.51h2.42l146.57-438.51h133.9l-229.81,626.09H3373.62l-229.81-626.09ZM2556.93,1724h561.55v126.07H2690.23V2101h365.52v118.22H2690.23v258.16h428.25v126.06H2556.93ZM2262.86,2901.81H1866.46v-215h396.41Zm-530.78-598h188.12V2492H1732.08Zm0,598H1436.46V2606.19h295.62Zm-302.34-503.91V2209.78h188.12v188.12Zm-692-94.06H946V2095.57H737.71V1914.16H946V1705.88H737.71V1558.07h974.22v141.09H1503.65v208.28h208.28v188.12H1302.08v383H737.71Z"/><path class="cls-1" d="M6292.34,2413.47q0,32,28.35,54.28,27.14,24.74,89.87,24.73,79,1.21,111.59-18.7,29.55-19.9,29.55-90.47v-45.24H6400.92Q6291.13,2340.49,6292.34,2413.47Z"/><path class="cls-1" d="M7253.2,2413.47q0,32,28.35,54.28,27.14,24.74,89.87,24.73,79,1.21,111.59-18.7,29.55-19.9,29.55-90.47v-45.24H7361.77Q7252,2340.49,7253.2,2413.47Z"/></g></g></svg>