<svg xmlns="http://www.w3.org/2000/svg" xmlns:xlink="http://www.w3.org/1999/xlink" viewBox="0 0 1527.17 1520.55"><defs><symbol id="Calendar" data-name="Calendar" viewBox="0 0 334.43 332.98"><path d="M308.31,30.92H292.1v-4.8A26.2,26.2,0,0,0,266,0h-.39a26.2,26.2,0,0,0-26.13,26.13v4.8H95v-4.8A26.2,26.2,0,0,0,68.83,0h-.39A26.2,26.2,0,0,0,42.31,26.13v4.8H26.13A26.2,26.2,0,0,0,0,57.05v249.8A26.2,26.2,0,0,0,26.13,333H308.31a26.2,26.2,0,0,0,26.13-26.13V57.05A26.2,26.2,0,0,0,308.31,30.92Zm-58.4-4.8a15.69,15.69,0,0,1,15.68-15.68H266a15.71,15.71,0,0,1,15.68,15.68V72.61A15.71,15.71,0,0,1,266,88.28h-.39a15.69,15.69,0,0,1-15.68-15.68Zm-197.14,0A15.69,15.69,0,0,1,68.44,10.45h.39A15.71,15.71,0,0,1,84.51,26.13V72.61A15.71,15.71,0,0,1,68.83,88.28h-.39A15.69,15.69,0,0,1,52.77,72.61Zm255.54,286H26.13a5.3,5.3,0,0,1-5.23-5.23V123.19H313.53V306.86A5.3,5.3,0,0,1,308.31,312.08Z"/></symbol></defs><title>cal</title><g id="Layer_2" data-name="Layer 2"><g id="Paint_Patterns" data-name="Paint Patterns"><use id="Calendar-3" data-name="Calendar" width="334.43" height="332.98" transform="scale(4.57)" xlink:href="#Calendar"/></g></g></svg>