<svg xmlns="http://www.w3.org/2000/svg" viewBox="0 0 1282.12 741"><defs><style>.cls-1{fill:#444;stroke-width:3px;}.cls-1,.cls-3{stroke:#313131;}.cls-2{fill:#3fa9f5;}.cls-3{fill:none;stroke-miterlimit:10;}.cls-4{fill:#01293d;}</style></defs><title>comp2</title><g id="Layer_2" data-name="Layer 2"><g id="Layer_1-2" data-name="Layer 1"><g id="Layer_2-2" data-name="Layer 2"><g id="Layer_1-2-2" data-name="Layer 1-2"><g id="Macbook"><g id="Fill"><path id="path-3" class="cls-1" d="M151.79,1.5c-20,0-36.86,15.43-36.86,35.36V681.71c0,13.28,11.51,24.77,24.81,24.77h999.94c13.31,0,23.38-11.49,23.38-24.77V36.86A34.9,34.9,0,0,0,1128.63,1.5H151.79Z"/></g><polygon id="Fill-2" class="cls-2" points="154.41 649.76 1135.06 649.76 1135.06 43.86 154.41 43.86 154.41 649.76"/><path id="Fill-3" class="cls-3" d="M51,735.91c-16,0-36.07-9.59-44.63-13.69-1.22-.58-2.74-1-2.74-1.29v-18H1277.21v18c0,.29-1.51.71-2.72,1.3-8.5,4.09-28.4,13.68-44.3,13.68Z"/><g id="Fill-4"><path id="path-5" class="cls-1" d="M1279.36,702.17H1.5v21c2.87,0,29.46,16.33,50.33,16.33h1179c20.72,0,47.43-16,48.84-16a3.26,3.26,0,0,0-.3-.48Z"/></g><polygon id="Line" class="cls-1" points="5.09 720.12 3.65 722.99 1275.77 722.99 1277.21 720.12 5.09 720.12"/><path id="Fill-5" class="cls-4" d="M707.19,715.81H561.81a14.1,14.1,0,0,1-14-14.2h0v-.14H721.55v.14a14.26,14.26,0,0,1-14.18,14.21"/><path id="Fill-6" class="cls-2" d="M639.71,25.91a5,5,0,1,1-5-5,5,5,0,0,1,5,5"/></g></g></g></g></g></svg>