<?xml version="1.0" encoding="utf-8"?>
<!-- Generator: Adobe Illustrator 21.1.0, SVG Export Plug-In . SVG Version: 6.00 Build 0)  -->
<svg version="1.1" id="Layer_1" xmlns="http://www.w3.org/2000/svg" xmlns:xlink="http://www.w3.org/1999/xlink" x="0px" y="0px"
	 viewBox="0 0 1281.2 741" style="enable-background:new 0 0 1281.2 741;" xml:space="preserve">
<style type="text/css">
	.st0{fill:#444444;stroke:#313131;stroke-width:3;}
	.st1{fill:#3FA9F5;}
	.st2{fill:none;stroke:#313131;stroke-miterlimit:10;}
	.st3{fill:#01293D;}
</style>
<title>computer</title>
<g id="Layer_2">
	<g id="Layer_1-2">
		<g id="Macbook">
			<g id="Fill">
				<path id="path-3" class="st0" d="M177.8-15c-20,0-36.9,15.4-36.9,35.4v644.9c0,13.3,11.5,24.8,24.8,24.8h999.9
					c13.3,0,23.4-11.5,23.4-24.8V20.4c0.3-19.3-15.2-35.1-34.4-35.4c-0.3,0-0.7,0-1,0H177.8z"/>
			</g>
			<polygon id="Fill-2" class="st1" points="180.4,633.2 1161.1,633.2 1161.1,27.4 180.4,27.4 			"/>
			<path id="Fill-3" class="st2" d="M77,719.4c-16,0-36.1-9.6-44.6-13.7c-1.2-0.6-2.7-1-2.7-1.3v-18h1273.6v18
				c0,0.3-1.5,0.7-2.7,1.3c-8.5,4.1-28.4,13.7-44.3,13.7H77z"/>
			<g id="Fill-4">
				<path id="path-5" class="st0" d="M1305.4,685.7H27.5v21c2.9,0,29.5,16.3,50.3,16.3h1179c20.7,0,47.4-16,48.8-16
					c-0.1-0.2-0.2-0.3-0.3-0.5L1305.4,685.7z"/>
			</g>
			<polygon id="Line" class="st0" points="31.1,703.6 29.6,706.5 1301.8,706.5 1303.2,703.6 			"/>
			<path id="Fill-5" class="st3" d="M733.2,699.3H587.8c-7.8-0.1-14.1-6.4-14-14.2c0,0,0,0,0,0v-0.1h173.7v0.1
				c0,7.8-6.4,14.2-14.2,14.2"/>
			<path id="Fill-6" class="st1" d="M665.7,9.4c0,2.8-2.2,5-5,5s-5-2.2-5-5s2.2-5,5-5S665.7,6.6,665.7,9.4"/>
		</g>
	</g>
</g>
</svg>
