<?xml version="1.0" encoding="utf-8"?>
<!-- Generator: Adobe Illustrator 21.1.0, SVG Export Plug-In . SVG Version: 6.00 Build 0)  -->
<svg version="1.1" id="Layer_1" xmlns="http://www.w3.org/2000/svg" xmlns:xlink="http://www.w3.org/1999/xlink" x="0px" y="0px"
	 viewBox="0 0 1735.7 349.4" style="enable-background:new 0 0 1735.7 349.4;" xml:space="preserve">
<style type="text/css">
	.st0{fill:#008ED6;}
	.st1{font-family:'DINAlternate-Bold';}
	.st2{font-size:307.07px;}
	.st3{letter-spacing:-3;}
	.st4{letter-spacing:6;}
</style>
<title>everydatalogo2</title>
<g id="Layer_2">
	<g id="Layer_1-2">
		<text transform="matrix(1 0 0 1 401.14 263.74)" class="st0 st1 st2">E</text>
		<text transform="matrix(1 0 0 1 571.92 263.74)" class="st0 st1 st2 st3">v</text>
		<text transform="matrix(1 0 0 1 706.42 263.74)" class="st0 st1 st2">e</text>
		<text transform="matrix(1 0 0 1 859.95 263.74)" class="st0 st1 st2 st4">r</text>
		<text transform="matrix(1 0 0 1 984.37 265.09)" class="st0 st1 st2">y</text>
		<text transform="matrix(1 0 0 1 1121.89 263.74)" class="st0 st1 st2">Data</text>
		<circle class="st0" cx="107.7" cy="121.1" r="4.3"/>
		<path class="st0" d="M129.3,232.7v-53.4l-56.8-56.8H45.6c-0.8,3.9-4.6,6.4-8.5,5.6s-6.4-4.6-5.6-8.5s4.6-6.4,8.5-5.6
			c2.8,0.6,5,2.8,5.6,5.6h28.1l58.5,58.5v54.5h8.1v-87.1h-2.5c-0.8,3.9-4.6,6.4-8.5,5.6c-3.9-0.8-6.4-4.6-5.6-8.5
			c0.8-3.9,4.6-6.4,8.5-5.6c2.8,0.6,5,2.8,5.6,5.6h2.5v-5.2h35.1V82.1c-3.9-0.8-6.4-4.6-5.6-8.5c0.8-3.9,4.6-6.4,8.5-5.6
			c3.9,0.8,6.4,4.6,5.6,8.5c-0.6,2.8-2.8,5-5.6,5.6v55.4h20.2V90.7h-8.1V39h19l32.8-32.7V3.9H216l-26.4,26.5h-28.7
			c-0.8,3.9-4.6,6.4-8.5,5.6c-3.9-0.8-6.4-4.6-5.6-8.5c0.8-3.9,4.6-6.4,8.5-5.6c2.8,0.6,5,2.8,5.6,5.6h27.5L212,3.9h-33.7v3.4h-40.5
			c-0.8,3.9-4.6,6.4-8.5,5.6c-3.9-0.8-6.4-4.6-5.6-8.5c0-0.2,0.1-0.4,0.1-0.5h-14.7v72.6H91.7c-0.8,3.9-4.6,6.4-8.5,5.6
			s-6.4-4.6-5.6-8.5s4.6-6.4,8.5-5.6c2.8,0.6,5,2.8,5.6,5.6h14.6V3.9H86.1V41L51.8,75.3v17.1H34.7l-17.8,17.8v3.8
			c3.9,0.8,6.4,4.6,5.6,8.5s-4.6,6.4-8.5,5.6c-3.9-0.8-6.4-4.6-5.6-8.5c0.6-2.8,2.8-5,5.6-5.6v-5l16.6-16.6H0.1L0,92.5v45h12.8
			c1.7-0.7,3.7-0.7,5.4,0h33.6v5.2h10.4l47,47v43L129.3,232.7z M152.4,119.7V50.5h17.4c0.8-3.9,4.6-6.4,8.5-5.6
			c3.9,0.8,6.4,4.6,5.6,8.5c-0.8,3.9-4.6,6.4-8.5,5.6c-2.8-0.6-5-2.8-5.6-5.6h-14.6v69.2h-40.5c-0.8,3.9-4.6,6.4-8.5,5.6
			s-6.4-4.6-5.6-8.5s4.6-6.4,8.5-5.6c2.8,0.6,5,2.8,5.6,5.6L152.4,119.7z M54.5,96.6c0.8-3.9,4.6-6.4,8.5-5.6
			c2.8,0.6,5.1,2.8,5.6,5.6h60.7V36c-3.9-0.8-6.4-4.6-5.6-8.5c0.8-3.9,4.6-6.4,8.5-5.6c3.9,0.8,6.4,4.6,5.6,8.5
			c-0.6,2.8-2.8,5-5.6,5.6v63.5H68.7c-0.8,3.9-4.6,6.4-8.5,5.6S53.7,100.5,54.5,96.6z"/>
		<path class="st0" d="M34.2,190.3c0,2.4,1.9,4.3,4.3,4.3c2.4,0,4.3-1.9,4.3-4.3c0-0.3,0-0.7-0.1-1h-8.4
			C34.3,189.6,34.2,189.9,34.2,190.3z"/>
		<circle class="st0" cx="176.9" cy="52" r="4.3"/>
		<circle class="st0" cx="61.6" cy="98.1" r="4.3"/>
		<path class="st0" d="M59.4,232.7h4.5C62.5,231.8,60.7,231.8,59.4,232.7z"/>
		<circle class="st0" cx="130.8" cy="28.9" r="4.3"/>
		<polygon class="st0" points="61,145.6 51.8,145.6 51.8,166.9 86.1,201.2 86.1,232.7 106.3,232.7 106.3,190.9 		"/>
		<circle class="st0" cx="61.6" cy="213.3" r="4.3"/>
		<path class="st0" d="M37.1,3.9H22.4c0.9,3.9-1.4,7.8-5.3,8.7s-7.8-1.4-8.7-5.3H0v33.3h13.3l23.8-23.8V3.9z"/>
		<path class="st0" d="M63,229.3c2,0.4,3.7,1.6,4.7,3.4h15.5v-30.3l-31.4-31.4v18.3h-6.1c0.6,3.9-2.1,7.6-6,8.2
			c-3.8,0.6-7.5-2-8.2-5.8H0v20.2h54.5c0.8-3.9,4.6-6.4,8.5-5.6c3.9,0.8,6.4,4.6,5.6,8.5c-0.8,3.9-4.6,6.4-8.5,5.6
			c-2.8-0.6-5-2.8-5.6-5.6H0v17.9h55.4C57,230.1,60,228.7,63,229.3z"/>
		<path class="st0" d="M8.4,4.4c0-0.2,0.1-0.4,0.1-0.5H0v0.5H8.4z"/>
		<polygon class="st0" points="60.2,28.3 60.2,3.9 40,3.9 40,18 17.3,40.6 47.8,40.6 		"/>
		<path class="st0" d="M11.2,5.8c0,2.4,1.9,4.3,4.3,4.3s4.3-1.9,4.3-4.3c0-0.7-0.2-1.4-0.5-2h-7.6C11.3,4.5,11.2,5.1,11.2,5.8z"/>
		<circle class="st0" cx="153.8" cy="28.9" r="4.3"/>
		<path class="st0" d="M122.3,3.8h56.6l-3,12.2h-53.8C122.2,16.3,122.2,3.4,122.3,3.8z"/>
		<path class="st0" d="M224.4,137.5h17.8v-10.3c-3.4-2.1-4.4-6.6-2.3-9.9c0.6-0.9,1.3-1.7,2.3-2.3v-10.9c-3.4-2.1-4.4-6.6-2.3-9.9
			c0.6-0.9,1.3-1.7,2.3-2.3v-1.2h-17.8V137.5z"/>
		<polygon class="st0" points="242.2,10.3 213.5,39 242.2,39 		"/>
		<circle class="st0" cx="176.9" cy="75" r="4.3"/>
		<circle class="st0" cx="38.5" cy="121.1" r="4.3"/>
		<circle class="st0" cx="130.8" cy="144.2" r="4.3"/>
		<rect x="201.4" y="90.7" class="st0" width="20.2" height="46.8"/>
		<circle class="st0" cx="84.7" cy="75" r="4.3"/>
		<circle class="st0" cx="15.5" cy="121.1" r="4.3"/>
		<path class="st0" d="M242.2,123v-3.9C241.5,120.3,241.5,121.8,242.2,123z"/>
		<polygon class="st0" points="83.2,39.8 83.2,3.9 63,3.9 63,29.5 51.8,40.8 51.8,71.3 		"/>
		<path class="st0" d="M242.2,100v-3.9C241.5,97.3,241.5,98.8,242.2,100L242.2,100z"/>
		<path class="st0" d="M194,174c-2.1-0.4-3.6-2.1-3.9-4.2H180v46.8h14V206c-2.7-0.6-4.5-3.2-3.9-5.9c0.6-2.7,3.2-4.5,5.9-3.9
			c2.7,0.6,4.5,3.2,3.9,5.9c-0.4,2-1.9,3.5-3.9,3.9v10.6h14V206c-2.7-0.6-4.5-3.2-3.9-5.9c0.6-2.7,3.2-4.5,5.9-3.9
			c2.7,0.6,4.5,3.2,3.9,5.9c-0.4,2-1.9,3.5-3.9,3.9v10.6h9.8v-30.5h-21.9c-0.6,2.7-3.2,4.5-5.9,3.9c-2.7-0.6-4.5-3.2-3.9-5.9
			c0.6-2.7,3.2-4.5,5.9-3.9c2,0.4,3.5,1.9,3.9,3.9h21.9v-14h-21.9C199.3,172.8,196.7,174.6,194,174C194,174,194,174,194,174z"/>
		<rect x="175" y="169.9" class="st0" width="3" height="46.8"/>
		<circle class="st0" cx="195" cy="185.1" r="3"/>
		<circle class="st0" cx="211" cy="201.1" r="3"/>
		<path class="st0" d="M195,172.1c1.4,0,2.6-0.9,2.9-2.3h-5.8C192.4,171.2,193.6,172.1,195,172.1z"/>
		<circle class="st0" cx="195" cy="201.1" r="3"/>
		<circle class="st0" cx="237" cy="302.1" r="3"/>
		<path class="st0" d="M220,335.1h-16V323c-2.7-0.6-4.5-3.2-3.9-5.9c0.6-2.7,3.2-4.5,5.9-3.9c2.7,0.6,4.5,3.2,3.9,5.9
			c-0.4,2-1.9,3.5-3.9,3.9v10.1h16v4.8h14v-18.7h-10.1c-0.6,2.7-3.2,4.5-5.9,3.9c-2.7-0.6-4.5-3.2-3.9-5.9c0.6-2.7,3.2-4.5,5.9-3.9
			c2,0.4,3.5,1.9,3.9,3.9H238v20.8h9.2v-50.8h-73.5v14h58.4c0.6-2.7,3.2-4.5,5.9-3.9c2.7,0.6,4.5,3.2,3.9,5.9
			c-0.6,2.7-3.2,4.5-5.9,3.9c-2-0.4-3.5-1.9-3.9-3.9h-58.4v14H190v18h-16v2.8h46V335.1z"/>
		<rect x="173.7" y="319.1" class="st0" width="14.3" height="14"/>
		<rect x="173.7" y="264.4" class="st0" width="73.5" height="4.7"/>
		<circle class="st0" cx="221" cy="318.1" r="3"/>
		<rect x="173.7" y="271.1" class="st0" width="73.5" height="14"/>
		<circle class="st0" cx="205" cy="318.1" r="3"/>
		<path class="st0" d="M265.1,215.1H255V236h14v-6.9h16v-30h-16v-9.9h-14v9.9h-7.8V236h5.8v-22.9h12.1c0.6-2.7,3.2-4.5,5.9-3.9
			c2.7,0.6,4.5,3.2,3.9,5.9c-0.6,2.7-3.2,4.5-5.9,3.9C267,218.6,265.5,217.1,265.1,215.1z"/>
		<circle class="st0" cx="270" cy="214.1" r="3"/>
		<rect x="247.2" y="189.3" class="st0" width="5.8" height="7.9"/>
		<polygon class="st0" points="294,189.3 271,189.3 271,197.1 287,197.1 287,231.1 271,231.1 271,236 294,236 		"/>
		<polygon class="st0" points="302.9,284.5 291.1,284.5 291.1,290.1 280.6,290.1 280.6,304.1 302.9,304.1 		"/>
		<path class="st0" d="M364,338.9v-15.8h-83.4v13c0.1,0.3,0.2,0.7,0.3,1h73c0.6-2.7,2.9-4.3,5.1-3.6c2.1,0.6,3.4,2.9,3.2,5.4H364z"
			/>
		<rect x="280.6" y="284.5" class="st0" width="8.8" height="3.7"/>
		<path class="st0" d="M360.5,338.1c0-1.7-1.1-3-2.5-3c-1.4,0-2.6,1.3-2.6,3c0,0.3,0,0.6,0.1,0.8h4.9
			C360.5,338.7,360.5,338.4,360.5,338.1z"/>
		<rect x="331.7" y="285.5" class="st0" width="32.3" height="3.7"/>
		<polygon class="st0" points="330,291.1 330,285.5 318.2,285.5 318.2,305.1 364,305.1 364,291.1 		"/>
		<polygon class="st0" points="316.5,285.5 304.6,285.5 304.6,307.1 280.6,307.1 280.6,321.1 364,321.1 364,307.1 316.5,307.1 		"/>
	</g>
</g>
</svg>
