<svg xmlns="http://www.w3.org/2000/svg" viewBox="0 0 1735.7 349.36"><defs><style>.cls-1{font-size:307.07px;font-family:DINAlternate-Bold, DIN Alternate;font-weight:700;}.cls-1,.cls-5{fill:#fff;}.cls-2{letter-spacing:-0.01em;}.cls-3{letter-spacing:0.02em;}.cls-4{letter-spacing:0em;}</style></defs><title>everydatawhite</title><g id="Layer_2" data-name="Layer 2"><g id="Layer_1-2" data-name="Layer 1"><text class="cls-1" transform="translate(429.14 263.74)">E<tspan class="cls-2" x="170.78" y="0">v</tspan><tspan x="305.28" y="0">e</tspan><tspan class="cls-3" x="458.81" y="0">r</tspan><tspan class="cls-4" x="583.23" y="1.35">y</tspan><tspan x="720.75" y="0">Data</tspan></text><circle class="cls-5" cx="107.7" cy="121.11" r="4.32"/><path class="cls-5" d="M129.32,232.69V179.31L72.55,122.55H45.61a7.2,7.2,0,1,1,0-2.88H73.7l58.5,58.5v54.52h8.1V145.6h-2.48a7.2,7.2,0,1,1,0-2.88h2.48v-5.23h35.13V82.06a7.2,7.2,0,1,1,2.88,0v55.43h20.17V90.72H190.4V38.95h19L242.17,6.22V3.87H216L189.58,30.34H160.87a7.2,7.2,0,1,1,0-2.88h27.52L212,3.87H178.3V7.28H137.82A7.2,7.2,0,1,1,123.7,4.4c0-.18.09-.36.14-.53H109.14V76.44H91.71a7.2,7.2,0,1,1,0-2.88h14.55V3.87H86.09V41L51.78,75.33V92.39H34.71L16.93,110.17V114a7.2,7.2,0,1,1-2.88,0V109l16.6-16.6H.13L0,92.53v45H12.78a7,7,0,0,1,5.39,0h33.6v5.23H62.19l47,47v43Zm23.05-113V50.51H169.8a7.2,7.2,0,1,1,0,2.88H155.25v69.16H114.76a7.2,7.2,0,1,1,0-2.88ZM54.54,96.61a7.2,7.2,0,0,1,14.12,0h60.66V36a7.2,7.2,0,1,1,2.88,0V99.49H68.66a7.2,7.2,0,0,1-14.12-2.88Z"/><path class="cls-5" d="M34.22,190.26a4.32,4.32,0,1,0,8.52-1H34.35A4.3,4.3,0,0,0,34.22,190.26Z"/><circle class="cls-5" cx="176.86" cy="51.95" r="4.32"/><circle class="cls-5" cx="61.6" cy="98.05" r="4.32"/><path class="cls-5" d="M59.37,232.69h4.47a4.22,4.22,0,0,0-4.47,0Z"/><circle class="cls-5" cx="130.76" cy="28.9" r="4.32"/><polygon class="cls-5" points="61.01 145.6 51.77 145.6 51.77 166.88 86.09 201.2 86.09 232.69 106.26 232.69 106.26 190.85 61.01 145.6"/><circle class="cls-5" cx="61.6" cy="213.32" r="4.32"/><path class="cls-5" d="M37.11,3.87H22.42a7.2,7.2,0,1,1-14,3.41H0V40.62H13.27L37.11,16.78Z"/><path class="cls-5" d="M63,229.31a7.19,7.19,0,0,1,4.73,3.37H83.21v-30.3L51.78,170.95v18.32h-6.1a7.2,7.2,0,0,1-14.19,2.44H0v20.17H54.54a7.2,7.2,0,1,1,0,2.88H0v17.93H55.42A7.2,7.2,0,0,1,63,229.31Z"/><path class="cls-5" d="M8.43,4.4c0-.18.09-.36.14-.53H0V4.4Z"/><polygon class="cls-5" points="60.16 28.3 60.16 3.87 39.99 3.87 39.99 17.96 17.33 40.62 47.85 40.62 60.16 28.3"/><path class="cls-5" d="M11.17,5.84a4.32,4.32,0,1,0,8.64,0,4.27,4.27,0,0,0-.5-2H11.67A4.27,4.27,0,0,0,11.17,5.84Z"/><circle class="cls-5" cx="153.81" cy="28.9" r="4.32"/><path class="cls-5" d="M126.43,5.84a4.32,4.32,0,1,0,8.64,0,4.27,4.27,0,0,0-.5-2h-7.65A4.27,4.27,0,0,0,126.43,5.84Z"/><path class="cls-5" d="M137.82,4.4h37.6V3.87H137.67C137.72,4,137.78,4.22,137.82,4.4Z"/><path class="cls-5" d="M224.41,137.49h17.77V127.19a7.19,7.19,0,0,1,0-12.17V104.14a7.19,7.19,0,0,1,0-12.17V90.72H224.41Z"/><polygon class="cls-5" points="242.18 10.28 213.51 38.95 242.18 38.95 242.18 10.28"/><circle class="cls-5" cx="176.86" cy="75" r="4.32"/><circle class="cls-5" cx="38.55" cy="121.11" r="4.32"/><circle class="cls-5" cx="130.76" cy="144.16" r="4.32"/><rect class="cls-5" x="201.36" y="90.72" width="20.17" height="46.76"/><circle class="cls-5" cx="84.65" cy="75" r="4.32"/><circle class="cls-5" cx="15.49" cy="121.11" r="4.32"/><path class="cls-5" d="M242.17,123v-3.87a4.17,4.17,0,0,0,0,3.87Z"/><polygon class="cls-5" points="83.21 39.83 83.21 3.87 63.04 3.87 63.04 29.49 51.77 40.75 51.77 71.27 83.21 39.83"/><path class="cls-5" d="M242.17,100V96.12a4.17,4.17,0,0,0,0,3.87Z"/><path class="cls-5" d="M194,174a5,5,0,0,1-3.93-4.16H180v46.76h14V206a5,5,0,1,1,2,0v10.6h14V206a5,5,0,1,1,2,0v10.6h9.79v-30.5H199.9a5,5,0,1,1,0-2h21.89v-14H199.9A5,5,0,0,1,194,174Z"/><rect class="cls-5" x="175.03" y="169.88" width="2.97" height="46.76"/><circle class="cls-5" cx="195" cy="185.14" r="3"/><circle class="cls-5" cx="211" cy="201.14" r="3"/><path class="cls-5" d="M195,172.14a3,3,0,0,0,2.9-2.26H192.1A3,3,0,0,0,195,172.14Z"/><circle class="cls-5" cx="195" cy="201.14" r="3"/><circle class="cls-5" cx="237" cy="302.14" r="3"/><path class="cls-5" d="M220,335.14H204V323a5,5,0,1,1,2,0v10.1h16v4.77h14V319.14H225.9a5,5,0,1,1,0-2H238v20.77h9.19V287.14H173.7v14h58.4a5,5,0,1,1,0,2H173.7v14H190v18H174v2.77h46Z"/><rect class="cls-5" x="173.7" y="319.14" width="14.3" height="14"/><rect class="cls-5" x="173.7" y="264.42" width="73.49" height="4.72"/><circle class="cls-5" cx="221" cy="318.14" r="3"/><rect class="cls-5" x="173.7" y="271.14" width="73.49" height="14"/><circle class="cls-5" cx="205" cy="318.14" r="3"/><path class="cls-5" d="M265.1,215.14H255V236h14v-6.89h16v-30H269v-9.88H255v9.88h-7.81V236H253V213.14h12.1a5,5,0,1,1,0,2Z"/><circle class="cls-5" cx="270" cy="214.14" r="3"/><rect class="cls-5" x="247.19" y="189.26" width="5.81" height="7.88"/><polygon class="cls-5" points="293.95 189.26 271 189.26 271 197.14 287 197.14 287 231.14 271 231.14 271 236.03 293.95 236.03 293.95 189.26"/><polygon class="cls-5" points="307 284.46 293 284.46 293 290.14 280.59 290.14 280.59 304.14 307 304.14 307 284.46"/><path class="cls-5" d="M379.13,337.91V322.14H280.59v13a5,5,0,0,1,.31,1h86.2a5,5,0,0,1,9.82,1.77Z"/><rect class="cls-5" x="280.59" y="284.46" width="10.41" height="3.68"/><path class="cls-5" d="M375,337.14a3,3,0,1,0-5.89.77h5.78A3,3,0,0,0,375,337.14Z"/><rect class="cls-5" x="341" y="284.46" width="38.13" height="3.68"/><polygon class="cls-5" points="339 290.14 339 284.46 325 284.46 325 304.14 379.13 304.14 379.13 290.14 339 290.14"/><polygon class="cls-5" points="323 284.46 309 284.46 309 306.14 280.59 306.14 280.59 320.14 379.13 320.14 379.13 306.14 323 306.14 323 284.46"/></g></g></svg>