<svg xmlns="http://www.w3.org/2000/svg" viewBox="0 0 1714.37 383.02"><defs><style>.cls-1,.cls-2{fill:#fff;}.cls-2{font-size:341.06px;font-family:Calibri, Calibri;}.cls-3{letter-spacing:-0.02em;}.cls-4{letter-spacing:-0.01em;}.cls-5{letter-spacing:0em;}.cls-6{letter-spacing:0em;}.cls-7{letter-spacing:-0.01em;}.cls-8{letter-spacing:-0.01em;}</style></defs><title>ogocalibri</title><g id="Layer_2" data-name="Layer 2"><g id="Layer_1-2" data-name="Layer 1"><g id="Layer_2-2" data-name="Layer 2"><g id="Layer_1-2-2" data-name="Layer 1-2"><circle class="cls-1" cx="107.7" cy="163.08" r="4.32"/><path class="cls-1" d="M129.32,274.66V221.28L72.55,164.52H45.61a7.2,7.2,0,1,1,0-2.88H73.7l58.5,58.5v54.52h8.1V187.57h-2.48a7.2,7.2,0,1,1,0-2.88h2.48v-5.23h35.13V124a7.2,7.2,0,1,1,2.88,0v55.43h20.17V132.69H190.4V80.92h19l32.77-32.73V45.84H216L189.58,72.31H160.87a7.2,7.2,0,1,1,0-2.88h27.52L212,45.84H178.3v3.41H137.82a7.21,7.21,0,0,1-14.12-2.88,2,2,0,0,1,.14-.53h-14.7v72.57H91.71a7.2,7.2,0,1,1,0-2.88h14.55V45.84H86.09V83L51.78,117.3v17.06H34.71L16.93,152.14V156a7.2,7.2,0,1,1-2.88,0v-5l16.6-16.6H.13L0,134.5v45H12.78a7,7,0,0,1,5.39,0h33.6v5.23H62.19l47,47v43Zm23.05-113V92.48H169.8a7.2,7.2,0,1,1,0,2.88H155.25v69.16H114.76a7.2,7.2,0,1,1,0-2.88ZM54.54,138.58a7.2,7.2,0,0,1,14.12,0h60.66V78a7.2,7.2,0,1,1,2.88,0v63.49H68.66a7.21,7.21,0,0,1-14.12-2.88Z"/><path class="cls-1" d="M34.22,232.23a4.32,4.32,0,1,0,8.52-1H34.35A4.3,4.3,0,0,0,34.22,232.23Z"/><circle class="cls-1" cx="176.86" cy="93.92" r="4.32"/><circle class="cls-1" cx="61.6" cy="140.02" r="4.32"/><path class="cls-1" d="M59.37,274.66h4.47A4.22,4.22,0,0,0,59.37,274.66Z"/><circle class="cls-1" cx="130.76" cy="70.87" r="4.32"/><polygon class="cls-1" points="61.01 187.57 51.77 187.57 51.77 208.85 86.09 243.17 86.09 274.66 106.26 274.66 106.26 232.82 61.01 187.57"/><circle class="cls-1" cx="61.6" cy="255.29" r="4.32"/><path class="cls-1" d="M37.11,45.84H22.42a7.2,7.2,0,0,1-14,3.41H0V82.59H13.27L37.11,58.75Z"/><path class="cls-1" d="M63,271.28a7.19,7.19,0,0,1,4.73,3.37H83.21v-30.3L51.78,212.92v18.32h-6.1a7.2,7.2,0,0,1-14.19,2.44H0v20.17H54.54a7.2,7.2,0,1,1,0,2.88H0v17.93H55.42A7.2,7.2,0,0,1,63,271.28Z"/><path class="cls-1" d="M8.43,46.37a2,2,0,0,1,.14-.53H0v.53Z"/><polygon class="cls-1" points="60.16 70.27 60.16 45.84 39.99 45.84 39.99 59.93 17.33 82.59 47.85 82.59 60.16 70.27"/><path class="cls-1" d="M11.17,47.81a4.32,4.32,0,1,0,8.64,0,4.27,4.27,0,0,0-.5-2H11.67A4.27,4.27,0,0,0,11.17,47.81Z"/><circle class="cls-1" cx="153.81" cy="70.87" r="4.32"/><path class="cls-1" d="M126.43,47.81a4.32,4.32,0,1,0,8.64,0,4.27,4.27,0,0,0-.5-2h-7.65A4.27,4.27,0,0,0,126.43,47.81Z"/><path class="cls-1" d="M137.82,46.37h37.6v-.53H137.67A4.34,4.34,0,0,1,137.82,46.37Z"/><path class="cls-1" d="M224.41,179.46h17.77v-10.3a7.19,7.19,0,0,1,0-12.17V146.11a7.19,7.19,0,0,1,0-12.17v-1.25H224.41Z"/><polygon class="cls-1" points="242.18 52.25 213.51 80.92 242.18 80.92 242.18 52.25"/><circle class="cls-1" cx="176.86" cy="116.97" r="4.32"/><circle class="cls-1" cx="38.55" cy="163.08" r="4.32"/><circle class="cls-1" cx="130.76" cy="186.13" r="4.32"/><rect class="cls-1" x="201.36" y="132.69" width="20.17" height="46.76"/><circle class="cls-1" cx="84.65" cy="116.97" r="4.32"/><circle class="cls-1" cx="15.49" cy="163.08" r="4.32"/><path class="cls-1" d="M242.17,165V161.1A4.17,4.17,0,0,0,242.17,165Z"/><polygon class="cls-1" points="83.21 81.8 83.21 45.84 63.04 45.84 63.04 71.46 51.77 82.72 51.77 113.24 83.21 81.8"/><path class="cls-1" d="M242.17,142v-3.88a4.17,4.17,0,0,0,0,3.87Z"/><path class="cls-1" d="M194,216a5,5,0,0,1-3.93-4.16H180v46.76h14V248a5,5,0,1,1,2,0v10.6h14V248a5,5,0,1,1,2,0v10.6h9.79v-30.5H199.9a5,5,0,1,1,0-2h21.89v-14H199.9A5,5,0,0,1,194,216Z"/><rect class="cls-1" x="175.03" y="211.85" width="2.97" height="46.76"/><circle class="cls-1" cx="195" cy="227.11" r="3"/><circle class="cls-1" cx="211" cy="243.11" r="3"/><path class="cls-1" d="M195,214.11a3,3,0,0,0,2.9-2.26h-5.8A3,3,0,0,0,195,214.11Z"/><circle class="cls-1" cx="195" cy="243.11" r="3"/><circle class="cls-1" cx="237" cy="344.11" r="3"/><path class="cls-1" d="M220,377.11H204V365a5,5,0,1,1,2,0v10.1h16v4.77h14V361.11H225.9a5,5,0,1,1,0-2H238v20.77h9.19V329.11H173.7v14h58.4a5,5,0,1,1,0,2H173.7v14H190v18H174v2.77h46Z"/><rect class="cls-1" x="173.7" y="361.11" width="14.3" height="14"/><rect class="cls-1" x="173.7" y="306.39" width="73.49" height="4.72"/><circle class="cls-1" cx="221" cy="360.11" r="3"/><rect class="cls-1" x="173.7" y="313.11" width="73.49" height="14"/><circle class="cls-1" cx="205" cy="360.11" r="3"/><path class="cls-1" d="M265.1,257.11H255V278h14v-6.89h16v-30H269V231.2H255v9.88h-7.81V278H253V255.11h12.1a5,5,0,1,1,0,2Z"/><circle class="cls-1" cx="270" cy="256.11" r="3"/><rect class="cls-1" x="247.19" y="231.23" width="5.81" height="7.88"/><polygon class="cls-1" points="293.95 231.23 271 231.23 271 239.11 287 239.11 287 273.11 271 273.11 271 278 293.95 278 293.95 231.23"/><polygon class="cls-1" points="307 326.43 293 326.43 293 332.11 280.59 332.11 280.59 346.11 307 346.11 307 326.43"/><path class="cls-1" d="M379.13,379.88V364.11H280.59v13a5,5,0,0,1,.31,1h86.2a5,5,0,0,1,9.82,1.77Z"/><rect class="cls-1" x="280.59" y="326.43" width="10.41" height="3.68"/><path class="cls-1" d="M375,379.11a3,3,0,1,0-5.89.77h5.78A3,3,0,0,0,375,379.11Z"/><rect class="cls-1" x="341" y="326.43" width="38.13" height="3.68"/><polygon class="cls-1" points="339 332.11 339 326.43 325 326.43 325 346.11 379.13 346.11 379.13 332.11 339 332.11"/><polygon class="cls-1" points="323 326.43 309 326.43 309 348.11 280.59 348.11 280.59 362.11 379.13 362.11 379.13 348.11 323 348.11 323 326.43"/></g></g><text class="cls-2" transform="translate(317 278.27)"><tspan class="cls-3">E</tspan><tspan class="cls-4" x="158.54" y="0">v</tspan><tspan x="309.25" y="0">e</tspan><tspan class="cls-5" x="478.94" y="0">r</tspan><tspan class="cls-6" x="599.51" y="0">yD</tspan><tspan class="cls-7" x="963.72" y="0">a</tspan><tspan class="cls-8" x="1123.92" y="0">t</tspan><tspan x="1234" y="0">a</tspan></text></g></g></svg>