<svg xmlns="http://www.w3.org/2000/svg" viewBox="0 0 21 16.59"><defs><style>.cls-1{fill:none;stroke:#23e589;stroke-miterlimit:10;opacity:0.79;}</style></defs><title>text-bubble</title><g id="Layer_2" data-name="Layer 2"><g id="Layer_1-2" data-name="Layer 1"><path class="cls-1" d="M10.41,13,7,16a.3.3,0,0,1-.5-.22V13.21a.3.3,0,0,0-.3-.3H2.5a1.9,1.9,0,0,1-2-1.77V2.27A1.9,1.9,0,0,1,2.5.5h16a1.9,1.9,0,0,1,2,1.77v8.87a1.9,1.9,0,0,1-2,1.77H10.61A.3.3,0,0,0,10.41,13ZM4.92,7.4h0A1.22,1.22,0,0,0,6.14,8.61h0A1.22,1.22,0,0,0,7.35,7.4h0A1.22,1.22,0,0,0,6.14,6.18h0A1.22,1.22,0,0,0,4.92,7.4Zm4.86,0h0A1.22,1.22,0,0,0,11,8.61h0A1.22,1.22,0,0,0,12.22,7.4h0A1.22,1.22,0,0,0,11,6.18h0A1.22,1.22,0,0,0,9.78,7.4Zm4.7,0h0A1.22,1.22,0,0,0,15.7,8.61h0A1.22,1.22,0,0,0,16.92,7.4h0A1.22,1.22,0,0,0,15.7,6.18h0A1.22,1.22,0,0,0,14.48,7.4Z"/></g></g></svg>